<svg xmlns="http://www.w3.org/2000/svg" width="414.4" height="168.443" viewBox="0 0 414.4 168.443">
  <g id="logo_bplay" data-name="logo bplay" transform="translate(0 0)">
    <path id="Trazado_1" data-name="Trazado 1" d="M284.931,106.119c0,4.757.247,8.779-.046,12.766-1.074,14.535-16.052,25.3-30.29,22.121a28.9,28.9,0,0,1-18.99-13.145,7.385,7.385,0,0,0-5.838-2.854c-1.664.175-4.181,2.616-4.345,4.254-.225,2.239,1.007,4.93,2.333,6.965,11.188,17.166,38.28,23.126,55.522,7.536,6.3-5.693,11.873-12.192,11.946-21.174.23-29.387.054-58.783.132-88.169.012-2.995-1.093-4.68-3.985-4.943-2.828-.261-5.126.7-5.764,3.792a24.6,24.6,0,0,0-.409,4.8c-.115,14.825.348,29.678-.454,44.461-.733,13.517-13.316,23.307-26.454,22.306-13.946-1.057-23.674-12.329-23.678-26.368q0-21.434-.017-42.878c0-3.98-1.874-6.132-5.24-6.2a5.688,5.688,0,0,0-5.825,5.942c.1,16.7-.227,33.439.8,50.089.851,13.808,13.223,26.572,26.756,29.361,12.339,2.546,23.445-.448,33.848-8.664" transform="translate(119.045 15.652)" fill="#30d87b"/>
    <path id="Trazado_2" data-name="Trazado 2" d="M140.3,67.685c0,18.2-.066,36.4.086,54.6.02,2.1.67,4.763,2.057,6.1,1.18,1.14,4.043,1.408,5.793.872,2.926-.893,3.43-3.707,3.43-6.621q-.067-54.4-.031-108.8c0-1.076.284-2.466-.264-3.156-1.254-1.582-2.766-3.559-4.506-3.971-1.563-.38-4.069.656-5.237,1.917-1.082,1.168-1.267,3.465-1.277,5.267-.084,17.929-.052,35.857-.052,53.792" transform="translate(74.714 3.53)" fill="#30d87b"/>
    <path id="Trazado_3" data-name="Trazado 3" d="M62.333,21.729A11.071,11.071,0,0,0,73.407,33.073,11.712,11.712,0,0,0,84.816,21.839a11.455,11.455,0,0,0-11.3-11.226A10.865,10.865,0,0,0,62.333,21.729" transform="translate(33.196 5.652)" fill="#fff"/>
    <path id="Trazado_4" data-name="Trazado 4" d="M0,8.1C2.051,3.6,4.73.011,10.383,0,17.1-.017,21.634,4.15,21.707,10.935c.1,9.033.021,18.067.037,27.11,0,1.29.112,2.587.2,4.417,9.471-6.69,19.762-8.185,30.512-7.58,17.339.978,30.464,9.405,39.333,23.865,11.677,19.033,8.674,43.2-6.546,59.327-19.948,21.139-53.575,19.957-71.808-.441A55.037,55.037,0,0,1,0,89.036Zm21.736,76.04c-.008,15.838,12.317,28.575,27.868,28.319A28.108,28.108,0,0,0,77.362,84.208c.008-15.266-12.757-28.323-27.877-28.1-15.471.231-28.251,12.546-27.749,28.031" transform="translate(0 0)" fill="#30d87b" fill-rule="evenodd"/>
    <path id="Trazado_5" data-name="Trazado 5" d="M245.082,74.077a46.943,46.943,0,0,0-.78-8.818c-5.453-27.441-33.687-43.811-61.136-32.273-28.348,11.925-35.5,48.785-14.32,71.1,10.739,11.313,24.109,15.83,39.585,12.958,9.491-1.761,17.372-6.918,25.548-13.649,0,3.353-.028,5.743.008,8.132.051,4.029,2.178,6.418,5.606,6.368,3.218-.054,5.51-2.717,5.516-6.605.032-12.4.06-24.808-.026-37.208M201.431,106.72c-18.021.493-33.171-14.115-33.693-32.5-.507-17.916,14.719-33.629,32.889-33.943,17.505-.3,32.768,14.673,33.324,32.7.561,17.982-14.142,33.238-32.52,33.743" transform="translate(83.383 15.574)" fill="#30d87b" fill-rule="evenodd"/>
    <path id="Trazado_6" data-name="Trazado 6" d="M159.133,58.079c-6.239-17.169-19.494-26.808-38.028-28.51C97.5,27.388,74.523,46.188,73.795,69.662c-.8,25.861-.225,51.766-.169,77.649.008,3.743,2.779,5.923,6.47,5.384,3.88-.572,4.812-3.313,4.8-6.769-.032-13.729-.011-27.462-.011-42.161,1.88,1.4,3.036,2.245,4.185,3.113,10.943,8.219,22.828,13.034,36.831,10.285,26.866-5.267,43.116-31.885,33.228-59.084m-41.5,48.513c-17.084.15-32.929-14.429-32.826-33.312.107-19.7,16.993-33.508,33.583-33.016a33.314,33.314,0,0,1,32.625,33.358c.254,18.058-15.4,33.091-33.382,32.97" transform="translate(39.077 15.656)" fill="#30d87b"/>
  </g>
</svg>
